<?xml version="1.0" encoding="UTF-8"?>
<svg width="879px" height="153px" viewBox="0 0 879 153" version="1.1" xmlns="http://www.w3.org/2000/svg" xmlns:xlink="http://www.w3.org/1999/xlink">
    <title>Nem Bestil</title>
    <g stroke="none" stroke-width="1" fill="none" fill-rule="evenodd">
        <g id="bestil" transform="translate(405.602, 7.051)" fill="#4FC9DA" fill-rule="nonzero">
            <g>
                <path d="M48.62,41.327 C43.571,41.327 38.709,42.075 34.034,43.571 C28.985,45.254 25.993,50.677 27.676,55.726 C29.172,60.962 34.782,63.767 39.831,62.084 C42.636,61.336 45.628,60.775 48.62,60.775 C64.515,60.775 77.605,73.865 77.605,89.947 C77.605,106.029 64.515,119.119 48.62,119.119 C32.538,119.119 19.448,106.029 19.448,89.947 L19.448,0 L0,0 L0,89.947 C0,116.688 21.692,138.38 48.62,138.38 C75.361,138.38 97.053,116.688 97.053,89.947 C97.053,63.206 75.361,41.327 48.62,41.327 Z" id="Path"></path>
                <path d="M140.811,89.947 C140.811,95.37 145.112,99.671 150.535,99.671 L208.692,99.671 L208.692,89.947 C208.692,63.206 187,41.327 160.259,41.327 C133.331,41.327 111.639,63.206 111.639,89.947 C111.639,116.688 133.331,138.38 160.259,138.38 C172.601,138.38 184.943,133.705 194.48,124.168 L180.829,110.517 C175.032,116.127 167.552,119.119 160.259,119.119 C144.177,119.119 131.087,106.029 131.087,89.947 C131.087,73.865 144.177,60.775 160.259,60.775 C172.788,60.775 183.634,69.003 187.561,80.223 L150.535,80.223 C145.112,80.223 140.811,84.524 140.811,89.947 Z" id="Path"></path>
                <path d="M265.353,80.41 C258.247,78.54 240.482,76.109 242.726,67.881 C245.718,59.653 258.995,60.214 263.296,60.775 C273.768,61.149 285.923,67.507 296.021,72.743 L302.379,54.043 C293.029,49.181 277.508,41.327 262.174,41.327 C244.596,41.327 223.839,49.555 223.278,69.003 C224.961,90.508 243.474,94.622 260.491,99.297 C265.166,100.419 285.362,104.533 282.931,112.013 C276.012,129.03 242.726,113.322 229.823,106.777 L223.465,125.664 C232.815,130.526 248.336,138.38 263.67,138.38 C272.085,138.38 280.687,136.51 287.232,133.331 C297.143,128.469 302.566,120.428 302.566,110.704 C300.883,89.199 282.37,85.085 265.353,80.41 Z" id="Path"></path>
                <path d="M381.48,117.997 C363.715,121.363 347.446,106.777 347.259,89.386 L347.259,63.206 L381.854,63.206 L381.854,43.758 L347.259,43.758 L347.259,9.537 L327.811,9.537 L327.811,43.758 L313.412,43.758 L313.412,63.206 L327.811,63.206 L327.811,89.386 C329.868,122.111 359.975,144.738 390.082,135.949 L381.48,117.997 Z" id="Path"></path>
                <path d="M401.489,135.949 L420.75,135.949 L420.75,43.758 L401.489,43.758 L401.489,135.949 Z M411.213,2.431 C404.481,2.431 399.058,7.854 399.058,14.586 C399.058,21.318 404.481,26.741 411.213,26.741 C417.945,26.741 423.181,21.318 423.181,14.586 C423.181,7.854 417.945,2.431 411.213,2.431 Z" id="Shape"></path>
                <polygon id="Path" points="443.377 135.949 462.825 135.949 462.825 0 443.377 0"></polygon>
            </g>
        </g>
        <g id="nem" transform="translate(9.602, 48.378)" fill="#B7D935" fill-rule="nonzero">
            <path d="M48.62,0 C21.692,0 0,21.879 0,48.62 L0,94.622 L19.448,94.622 L19.448,48.62 C19.448,32.538 32.538,19.448 48.62,19.448 C64.515,19.448 77.605,32.538 77.605,48.62 L77.605,94.622 L97.053,94.622 L97.053,48.62 C97.053,21.879 75.361,0 48.62,0 Z" id="Path"></path>
            <path d="M142.12,48.62 C142.12,54.043 146.421,58.344 151.844,58.344 L210.001,58.344 L210.001,48.62 C210.001,21.879 188.309,0 161.568,0 C134.64,0 112.948,21.879 112.948,48.62 C112.948,75.361 134.64,97.053 161.568,97.053 C173.91,97.053 186.252,92.378 195.789,82.841 L182.138,69.19 C176.341,74.8 168.861,77.792 161.568,77.792 C145.486,77.792 132.396,64.702 132.396,48.62 C132.396,32.538 145.486,19.448 161.568,19.448 C174.097,19.448 184.943,27.676 188.87,38.896 L151.844,38.896 C146.421,38.896 142.12,43.197 142.12,48.62 Z" id="Path"></path>
            <path d="M337.535,0 C323.697,0 311.542,6.358 303.501,16.269 C295.46,6.358 283.305,0 269.467,0 C245.531,0 225.896,19.635 225.896,43.758 L225.896,94.622 L245.344,94.622 L245.344,43.758 C245.344,30.294 256.19,19.448 269.467,19.448 C282.931,19.448 293.777,30.294 293.777,43.758 L293.777,94.622 L313.225,94.622 L313.225,43.758 C313.225,30.294 324.071,19.448 337.535,19.448 C350.812,19.448 361.845,30.294 361.845,43.758 L361.845,94.622 L381.106,94.622 L381.106,43.758 C381.106,19.635 361.658,0 337.535,0 Z" id="Path"></path>
        </g>
    </g>
</svg>