<svg xmlns="http://www.w3.org/2000/svg" fill="none" viewBox="0 0 48 48" id="Cashier--Streamline-Plump" height="48" width="48">
  <desc>
    Cashier Streamline Icon: https://streamlinehq.com
  </desc>
  <g id="cashier--shop-shopping-pay-payment-cashier-store-cash-register-machine">
    <path id="Vector" stroke="#f4d777" stroke-linecap="round" stroke-linejoin="round" d="M20.9889 14.0137C20.9959 13.248 21 11.9483 21 11.5c0 -1.0718 -0.0233 -1.87719 -0.0545 -2.47526 -0.0518 -0.99068 -0.7289 -1.75476 -1.7135 -1.87541C18.5602 7.06702 17.6578 7 16.5 7c-1.1578 0 -2.0602 0.06702 -2.732 0.14933 -0.9846 0.12065 -1.6617 0.88473 -1.7135 1.87541C12.0233 9.62281 12 10.4282 12 11.5c0 0.5761 0.0067 2.013 0.0178 2.8369" stroke-width="3"></path>
    <path id="Vector_2" stroke="#f4d777" stroke-linecap="round" stroke-linejoin="round" d="M29.5156 14.049C29.5058 13.1777 29.5 11.6477 29.5 11c0 -0.7974 0.0088 -1.46718 0.0231 -2.02917 -1.2586 -0.03218 -2.1676 -0.08674 -2.8102 -0.14183 -0.8804 -0.07547 -1.5544 -0.66391 -1.6386 -1.54353C25.0311 6.8337 25 6.24853 25 5.5c0 -0.74853 0.0311 -1.3337 0.0743 -1.78547 0.0842 -0.87962 0.7582 -1.46806 1.6386 -1.54353C27.7177 2.08485 29.374 2 32 2s4.2823 0.08485 5.2871 0.171c0.8804 0.07547 1.5544 0.66391 1.6386 1.54353C38.9689 4.1663 39 4.75147 39 5.5c0 0.74853 -0.0311 1.3337 -0.0743 1.78547 -0.0842 0.87962 -0.7582 1.46806 -1.6386 1.54353 -0.6426 0.05509 -1.5516 0.10965 -2.8102 0.14183 0.0143 0.56199 0.0231 1.23177 0.0231 2.02917 0 0.7146 -0.0071 2.3086 -0.0188 3.2074" stroke-width="3"></path>
    <path id="Rectangle 1098" stroke="#f4d777" stroke-linecap="round" stroke-linejoin="round" d="M2.17541 42.6649c0.27897 1.9738 2.06344 3.1 4.05623 3.1508C9.45634 45.8978 15.2298 46 24 46s14.5437 -0.1022 17.7684 -0.1843c1.9927 -0.0508 3.7772 -1.177 4.0562 -3.1508C45.9293 41.9242 46 41.0393 46 40s-0.0707 -1.9242 -0.1754 -2.6649c-0.279 -1.9738 -2.0635 -3.1 -4.0562 -3.1508C38.5437 34.1022 32.7702 34 24 34c-8.7702 0 -14.54366 0.1022 -17.76836 0.1843 -1.99279 0.0508 -3.77726 1.177 -4.05623 3.1508C2.07072 38.0758 2 38.9607 2 40s0.07072 1.9242 0.17541 2.6649Z" stroke-width="3"></path>
    <path id="Subtract" stroke="#f4d777" stroke-linecap="round" stroke-linejoin="round" d="M40.9893 34.1653c-0.0777 -6.4013 -0.5456 -11.8283 -0.9364 -15.3288 -0.2833 -2.5375 -2.249 -4.4516 -4.7985 -4.5898C32.8396 14.1159 29.226 14 24.0006 14c-5.2253 0 -8.839 0.1159 -11.2539 0.2467 -2.5496 0.1382 -4.51533 2.0524 -4.7986 4.59 -0.39076 3.5006 -0.85862 8.9274 -0.93638 15.3286" stroke-width="3"></path>
    <path id="Rectangle 123" stroke="#f4d777" stroke-linecap="round" stroke-linejoin="round" d="M21.9455 22.0247c-0.0518 -0.9906 -0.7289 -1.7547 -1.7135 -1.8754C19.5602 20.067 18.6578 20 17.5 20c-1.1578 0 -2.0602 0.067 -2.732 0.1493 -0.9846 0.1207 -1.6617 0.8848 -1.7135 1.8754C13.0233 22.6228 13 23.4282 13 24.5c0 1.0718 0.0233 1.8772 0.0545 2.4753 0.0518 0.9906 0.7289 1.7547 1.7135 1.8754 0.6718 0.0823 1.5742 0.1493 2.732 0.1493 1.1578 0 2.0602 -0.067 2.732 -0.1493 0.9846 -0.1207 1.6617 -0.8848 1.7135 -1.8754 0.0312 -0.5981 0.0545 -1.4035 0.0545 -2.4753 0 -1.0718 -0.0233 -1.8772 -0.0545 -2.4753Z" stroke-width="3"></path>
    <path id="Vector 1349" stroke="#f4d777" stroke-linecap="round" stroke-linejoin="round" d="M21.1211 40h6" stroke-width="3"></path>
    <path id="Vector 1350" stroke="#f4d777" stroke-linecap="round" stroke-linejoin="round" d="M27 22h8" stroke-width="3"></path>
    <path id="Vector 1351" stroke="#f4d777" stroke-linecap="round" stroke-linejoin="round" d="M27 27h6" stroke-width="3"></path>
  </g>
</svg>