<svg xmlns="http://www.w3.org/2000/svg" fill="none" viewBox="0 0 48 48" id="Cashier--Streamline-Plump" height="48" width="48">
  <desc>
    Cashier Streamline Icon: https://streamlinehq.com
  </desc>
  <g id="cashier--shop-shopping-pay-payment-cashier-store-cash-register-machine">
    <path id="Subtract" fill="#7af1ff" d="M7.01172 34.1653C10.3517 34.0872 15.8968 34 24.0005 34c8.1037 0 13.6489 0.0872 16.9888 0.1653 -0.0777 -6.4013 -0.5456 -11.8283 -0.9364 -15.3288 -0.2833 -2.5375 -2.249 -4.4516 -4.7985 -4.5898C32.8396 14.1159 29.226 14 24.0006 14c-5.2253 0 -8.839 0.1159 -11.2539 0.2467 -2.5496 0.1382 -4.51533 2.0524 -4.7986 4.59 -0.39076 3.5006 -0.85862 8.9274 -0.93638 15.3286Z" stroke-width="1"></path>
    <path id="Rectangle 1099" fill="#7af1ff" d="M1.76533 43.1032c0.28531 2.0113 2.11033 3.159 4.14839 3.2107 3.29797 0.0837 9.20258 0.1878 18.17208 0.1878 8.9695 0 14.8741 -0.1041 18.1721 -0.1878 2.038 -0.0517 3.863 -1.1994 4.1483 -3.2107 0.1071 -0.7548 0.1794 -1.6566 0.1794 -2.7156 0 -1.0591 -0.0723 -1.9609 -0.1794 -2.7156 -0.2853 -2.0114 -2.1103 -3.159 -4.1483 -3.2107 -3.298 -0.0838 -9.2026 -0.1879 -18.1721 -0.1879s-14.87411 0.1041 -18.17208 0.1878c-2.03806 0.0518 -3.86308 1.1994 -4.14839 3.2108 -0.10707 0.7547 -0.17939 1.6565 -0.17939 2.7156 0 1.059 0.07232 1.9608 0.17939 2.7156Z" stroke-width="1"></path>
    <path id="Union" fill="#0c098c" fill-rule="evenodd" d="M25.9018 8.37791c-1.0157 -0.08707 -1.7932 -0.76589 -1.8903 -1.78062 -0.0498 -0.52115 -0.0857 -1.19621 -0.0857 -2.05971 0 -0.86349 0.0359 -1.53855 0.0857 -2.05971 0.0971 -1.01473 0.8746 -1.69354 1.8903 -1.78061C27.061 0.597884 28.9716 0.5 32.0009 0.5c3.0294 0 4.94 0.097884 6.0992 0.19726 1.0157 0.08707 1.7932 0.76588 1.8903 1.78061 0.0498 0.52116 0.0857 1.19622 0.0857 2.05971 0 0.8635 -0.0359 1.53856 -0.0857 2.05971 -0.0971 1.01473 -0.8746 1.69355 -1.8903 1.78062 -0.7413 0.06355 -1.7899 0.12649 -3.2418 0.16361 0.0165 0.64831 0.0266 1.42097 0.0266 2.34088 0 0.3261 -0.0012 0.811 -0.0036 1.3422 0.1653 0.0083 0.3257 0.0166 0.4813 0.025 3.5566 0.1928 6.2896 2.8871 6.6779 6.3649 0.3836 3.4353 0.8396 8.6923 0.9399 14.903 2.1037 0.2854 4.0769 1.6238 4.4159 4.014 0.1139 0.8026 0.1893 1.7514 0.1893 2.8561s-0.0754 2.0534 -0.1893 2.856c-0.3763 2.6533 -2.7661 4.0104 -5.1131 4.07 -3.3071 0.0839 -9.2202 0.1881 -18.1974 0.1881 -8.9772 0 -14.89029 -0.1042 -18.19745 -0.1881 -2.34694 -0.0596 -4.73674 -1.4167 -5.11311 -4.07 -0.113849 -0.8026 -0.189302 -1.7513 -0.189302 -2.856 0 -1.1047 0.075453 -2.0535 0.189303 -2.8561 0.329859 -2.3254 2.206329 -3.6552 4.245039 -3.9884 0.09951 -6.2218 0.55617 -11.4883 0.94017 -14.9283 0.30096 -2.696 2.01096 -4.9213 4.42135 -5.8753 -0.0044 -0.7056 -0.0068 -1.3939 -0.0068 -1.7712 0 -1.27266 0.0277 -2.22895 0.0648 -2.93911 0.0614 -1.17634 0.8654 -2.08361 2.0346 -2.22687 0.7976 -0.09774 1.8692 -0.17732 3.2439 -0.17732 1.3748 0 2.4463 0.07958 3.244 0.17732 1.1692 0.14326 1.9732 1.05053 2.0346 2.22687 0.0371 0.71016 0.0648 1.66645 0.0648 2.93911 0 0.2172 -0.0008 0.6027 -0.0023 1.0447 0.9194 -0.0084 1.8988 -0.013 2.9412 -0.013 1.9122 0 3.6119 0.0154 5.119 0.0415 -0.0017 -0.4658 -0.0026 -0.8823 -0.0026 -1.1591 0 -0.91991 0.0101 -1.69257 0.0266 -2.34088 -1.4519 -0.03712 -2.5005 -0.10006 -3.2418 -0.16361ZM9.02333 33.3938c3.47207 -0.0635 8.43137 -0.1204 15.06247 -0.1204 6.5232 0 11.4286 0.0551 14.8919 0.1173 -0.104 -5.9727 -0.5435 -11.0272 -0.9125 -14.3323 -0.1783 -1.5971 -1.3766 -2.731 -2.919 -2.8146C32.7743 16.1153 29.1974 16 24.0006 16c-5.1967 0 -8.7736 0.1153 -11.1457 0.2438 -1.5425 0.0836 -2.7409 1.2176 -2.91914 2.8148 -0.36902 3.3057 -0.80851 8.3613 -0.91243 14.3352Zm8.47637 -13.3586c-1.1178 0 -1.997 0.0647 -2.6605 0.146 -1.3062 0.16 -2.2026 1.1929 -2.2693 2.4691 -0.0302 0.5777 -0.0523 1.3484 -0.0523 2.367s0.0221 1.7893 0.0523 2.367c0.0667 1.2762 0.9631 2.3091 2.2693 2.4691 0.6635 0.0813 1.5427 0.146 2.6605 0.146s1.9971 -0.0647 2.6606 -0.146c1.3061 -0.16 2.2026 -1.1929 2.2692 -2.4691 0.0302 -0.5777 0.0524 -1.3484 0.0524 -2.367s-0.0222 -1.7893 -0.0524 -2.367c-0.0666 -1.2762 -0.9631 -2.3091 -2.2692 -2.4691 -0.6635 -0.0813 -1.5428 -0.146 -2.6606 -0.146ZM27 20.0781c-1.1046 0 -2 0.8955 -2 2 0 1.1046 0.8954 2 2 2h7c1.1046 0 2 -0.8954 2 -2 0 -1.1045 -0.8954 -2 -2 -2h-7Zm-2 7.5625c0 -1.1045 0.8954 -2 2 -2h5.25c1.1046 0 2 0.8955 2 2 0 1.1046 -0.8954 2 -2 2H27c-1.1046 0 -2 -0.8954 -2 -2Zm-5.8789 12.7461c0 -1.1045 0.8954 -2 2 -2h6c1.1046 0 2 0.8955 2 2 0 1.1046 -0.8954 2 -2 2h-6c-1.1046 0 -2 -0.8954 -2 -2Z" clip-rule="evenodd" stroke-width="1"></path>
  </g>
</svg>